<svg xmlns="http://www.w3.org/2000/svg" viewBox="0 0 647.3 647.3"><defs><style>.cls-1{fill:#fff;}</style></defs><title>Asset 2</title><g id="Layer_2" data-name="Layer 2"><g id="Layer_1-2" data-name="Layer 1"><polygon class="cls-1" points="323.15 432.04 151.32 603.87 42.43 494.98 214.25 323.15 43.43 152.32 152.32 43.43 323.15 214.25 494.98 42.43 603.87 151.32 432.04 323.15 604.87 495.98 495.98 604.87 323.15 432.04"/><path d="M495,84.85l66.47,66.47L432,280.72l-42.43,42.43L432,365.57,562.44,496,496,562.44,365.57,432l-42.43-42.43L280.72,432l-129.4,129.4L84.85,495l129.4-129.4,42.43-42.43-42.43-42.43L85.85,152.32l66.47-66.47,128.4,128.4,42.43,42.43,42.43-42.43L495,84.85M495,0,323.15,171.83,152.32,1,1,152.32,171.83,323.15,0,495,151.32,646.3,323.15,474.47,496,647.3,647.3,496,474.47,323.15,646.3,151.32,495,0Z"/></g></g></svg>